<svg width="779" height="406" viewBox="0 0 779 406" fill="none" xmlns="http://www.w3.org/2000/svg">
<path d="M622.098 310.902C591.098 310.902 560.098 310.902 529.098 310.902C527.598 310.902 526.098 311.002 524.598 310.802C519.398 310.302 515.598 306.802 514.898 301.602C514.598 299.802 514.698 297.902 514.698 296.102C514.698 234.302 514.698 172.502 514.698 110.702C514.698 110.402 514.698 110.002 514.698 109.702C513.898 99.6024 520.498 95.7024 528.598 95.7024C590.998 96.0024 653.498 95.9024 715.998 95.9024C717.198 95.9024 718.298 95.9024 719.498 96.0024C724.898 96.5024 728.798 100.102 729.498 105.502C729.698 107.302 729.698 109.202 729.698 111.002C729.698 172.602 729.598 234.302 729.798 295.902C729.798 305.302 726.798 311.302 714.498 311.102C683.698 310.602 652.898 310.902 622.098 310.902Z" fill="black"/>
<path d="M499.698 204.002C499.198 267.602 447.698 318.402 384.098 317.802C321.298 317.302 270.598 265.502 271.098 202.402C271.598 139.502 323.198 88.6023 386.198 89.0023C449.098 89.4023 500.198 141.202 499.698 204.002Z" fill="black"/>
<path d="M170.898 310.202C133.598 310.202 96.298 310.202 58.998 310.202C57.298 310.202 55.698 310.302 53.998 310.102C49.998 309.602 47.998 306.302 49.498 302.502C49.998 301.302 50.798 300.202 51.398 299.002C88.998 233.802 126.698 168.602 164.298 103.402C164.998 102.202 165.598 101.002 166.398 100.002C169.098 96.3024 173.198 96.4024 175.898 100.202C176.498 101.002 176.898 101.902 177.398 102.802C215.198 168.302 252.898 233.802 290.898 299.102C295.098 306.302 292.298 310.402 284.398 310.302C246.598 310.002 208.698 310.202 170.898 310.202Z" fill="black"/>
</svg>
