<?xml version="1.0" encoding="UTF-8"?>
<svg width="24px" height="24px" viewBox="0 0 24 24" version="1.1" xmlns="http://www.w3.org/2000/svg" xmlns:xlink="http://www.w3.org/1999/xlink">
    <!-- Generator: Sketch 55.2 (78181) - https://sketchapp.com -->
    <title>iconmonstr-behance-1</title>
    <desc>Created with Sketch.</desc>
    <defs>
        <polygon id="path-1" points="0 5 24 5 24 20 0 20"></polygon>
    </defs>
    <g id="iconmonstr-behance-1" stroke="none" stroke-width="1" fill="none" fill-rule="evenodd">
        <mask id="mask-2" fill="white">
            <use xlink:href="#path-1"></use>
        </mask>
        <g id="Clip-2"></g>
        <path d="M6.391,14 L3,14 L3,17.016 L6.341,17.016 C9.396,17.016 9.209,14 6.391,14 Z M3,11 L6.584,11 C9.092,11 9.49,8 6.271,8 L3,8 L3,11 Z M6.466,19.988 L0,19.988 L0,5.021 L6.953,5.021 C12.429,5.102 12.533,10.466 9.672,11.927 C13.135,13.186 13.249,19.988 6.466,19.988 Z M16.04,13 L21.005,13 C20.899,11.453 19.869,10.781 18.527,10.781 C17.062,10.781 16.252,11.549 16.04,13 Z M23.726,17 C23.284,18.298 21.696,20 18.625,20 C15.552,20 13.06,18.271 13.06,14.325 C13.06,10.415 15.386,8.405 18.527,8.405 C21.608,8.405 23.491,10.186 23.902,12.831 C23.979,13.337 24.011,14.019 23.997,14.971 L15.969,14.971 C16.099,18.182 19.452,18.282 20.558,17 L23.726,17 Z M15,7 L22,7 L22,5 L15,5 L15,7 Z" id="Fill-1" fill="#FFFFFF" mask="url(#mask-2)"></path>
    </g>
</svg>